PathFileType	3	(X/Y/Z)	results
DataRate	CameraRate	NumFrames	NumMarkers	Units	OrigDataRate	OrigDataStartFrame	OrigNumFrames
30.0	30.0	4	85	mm	30.0	277	369
Frame#	Time	head			nose			neck			shoulder_r			elbow_r			wrist_r			shoulder_l			elbow_l			wrist_l			hip_r			knee_r			ankle_r			hip_l			knee_l			ankle_l			heel_r			heel_l			mtoe_r			ltoe_r			mtoe_l			ltoe_l			asis_l			asis_r			psi_r			psi_l			mhnd_r			lhnd_r			mhnd_l			lhnd_l			l_lat_knee			r_med_wrist			l_lat_ankle			r_med_ankle			r_lat_knee			xiphoid			l_med_ankle			r_med_knee			l_med_elbow			navel			r_lat_elbow			r_lat_wrist			l_med_wrist			l_lat_elbow			l_med_knee			r_med_elbow			r_lat_ankle			l_lat_wrist			chin			T10			r_eye			l_eye			l_ear			r_ear			spinal_cord_8			spinal_cord_12			spinal_cord_27			spinal_cord_33			up_arm_r_0			up_arm_r_5			up_arm_l_0			up_arm_l_5			front_torso_11			front_torso_7			front_torso_4			front_torso_1			front_torso_10			thigh_r_2			thigh_r_3			thigh_l_1			thigh_l_5			shank_l_0			shank_l_4			shank_r_1			shank_r_2			foot_r_1			foot_r_3			foot_r_5			foot_r_6			foot_r_7			foot_l_1			foot_l_7			foot_l_0			foot_l_4			foot_l_5			foot_l_6			
		X1	Y1	Z1	X2	Y2	Z2	X3	Y3	Z3	X4	Y4	Z4	X5	Y5	Z5	X6	Y6	Z6	X7	Y7	Z7	X8	Y8	Z8	X9	Y9	Z9	X10	Y10	Z10	X11	Y11	Z11	X12	Y12	Z12	X13	Y13	Z13	X14	Y14	Z14	X15	Y15	Z15	X16	Y16	Z16	X17	Y17	Z17	X18	Y18	Z18	X19	Y19	Z19	X20	Y20	Z20	X21	Y21	Z21	X22	Y22	Z22	X23	Y23	Z23	X24	Y24	Z24	X25	Y25	Z25	X26	Y26	Z26	X27	Y27	Z27	X28	Y28	Z28	X29	Y29	Z29	X30	Y30	Z30	X31	Y31	Z31	X32	Y32	Z32	X33	Y33	Z33	X34	Y34	Z34	X35	Y35	Z35	X36	Y36	Z36	X37	Y37	Z37	X38	Y38	Z38	X39	Y39	Z39	X40	Y40	Z40	X41	Y41	Z41	X42	Y42	Z42	X43	Y43	Z43	X44	Y44	Z44	X45	Y45	Z45	X46	Y46	Z46	X47	Y47	Z47	X48	Y48	Z48	X49	Y49	Z49	X50	Y50	Z50	X51	Y51	Z51	X52	Y52	Z52	X53	Y53	Z53	X54	Y54	Z54	X55	Y55	Z55	X56	Y56	Z56	X57	Y57	Z57	X58	Y58	Z58	X59	Y59	Z59	X60	Y60	Z60	X61	Y61	Z61	X62	Y62	Z62	X63	Y63	Z63	X64	Y64	Z64	X65	Y65	Z65	X66	Y66	Z66	X67	Y67	Z67	X68	Y68	Z68	X69	Y69	Z69	X70	Y70	Z70	X71	Y71	Z71	X72	Y72	Z72	X73	Y73	Z73	X74	Y74	Z74	X75	Y75	Z75	X76	Y76	Z76	X77	Y77	Z77	X78	Y78	Z78	X79	Y79	Z79	X80	Y80	Z80	X81	Y81	Z81	X82	Y82	Z82	X83	Y83	Z83	X84	Y84	Z84	X85	Y85	Z85	
277	9.233333333333333	63.19540319080644	1307.2581679415264	-386.56240657166006	41.90178662647472	1133.1045070853982	-510.41205769551766	50.535262171329094	1016.9529253806458	-345.93742512276805	205.89085325373568	950.199539863674	-378.6284958058437	206.13266656166624	773.7621827424674	-573.1131182102422	97.92334613984383	977.1159358873042	-583.6226953240335	-75.55590830066694	969.7517027124687	-367.61578332673474	-127.01736145361761	795.0454456467802	-533.037804565099	-0.3100977048876852	969.0003034661192	-565.0747512436196	146.2955626776014	619.9821634160838	-36.8242257835895	227.78997959176604	422.6175121309863	-389.38012572055527	209.5853157016007	103.07018183746646	-186.8435204549177	-42.6393022864685	616.8992304705342	-34.972931774351196	-115.29224027196241	426.5294080368182	-397.43697968030165	-96.22173431298093	109.34550199919852	-188.66013592759904	200.35157554880058	51.76962877017101	-150.29515388917	-97.37290978900852	50.907945394013375	-142.7924187757441	255.47648722666762	26.22732706674377	-361.1892622282785	301.17506211505855	21.84451693020901	-287.3538899744489	-99.85891383977646	52.57964011113021	-368.22272434105827	-174.322235564005	31.945248912327354	-308.7329266156725	-85.52241043974584	629.5104844494346	-104.85512572600689	191.15474937332203	634.2811676936059	-103.38705764719286	97.10230855433133	737.7244654959038	-31.484701816297797	2.897148641379403	732.0290150516987	-33.92177583922892	50.54293720636992	1026.0243268411625	-610.9128752073566	71.52286278438308	1059.4337187161464	-574.681707519422	49.879787111647964	1013.3783000399254	-601.4915836559575	43.00484601579221	1045.7556698363553	-559.5369839832016	-161.89439767201117	437.688557804655	-378.9243509694769	93.31013881166363	963.2556971949517	-608.6880900123195	-145.01020340147684	103.32246168849663	-166.58179258086417	182.7550654897046	83.0982801376523	-203.51010948226966	269.96730824860214	419.4396219882793	-376.7628258551507	63.03940946053559	826.7694581004143	-322.4898177128035	-69.75323997967357	90.33006568020208	-199.56058049279832	184.56991797231038	423.93804944369816	-394.1126553757913	-107.87548512627535	779.1828428032856	-510.0906637695144	65.47715998496807	643.325311886308	-206.5622033728156	236.41211160305377	797.0913027626937	-585.3944184809939	106.43316683876544	974.9285100597887	-552.8603295756164	-6.450226219850003	956.8890136157927	-592.129173977993	-152.64388328605807	821.8693859370602	-538.1149852090317	-65.37562883913536	442.2552767675473	-395.0368781726023	178.7317707086258	759.9331314278633	-552.4330774425717	252.47238428063247	93.95802497289918	-164.1156849395617	-12.670490704803195	974.0055199271444	-539.1688215485061	44.04295223533678	1056.4070209841188	-491.85740609832027	45.596946237793254	949.2207432036159	-173.5565479951465	75.34093853921905	1164.5713969689652	-514.1964675351788	6.296751035327682	1164.986834814295	-504.53966108579607	-31.90971245071054	1158.9792081130197	-395.4045735640898	139.6652574394585	1154.7734607939722	-416.8204401585438	45.12606114043206	1092.5123815745785	-341.63158340521284	41.78807808799358	1028.8901641660452	-232.17957573334843	60.38287050386486	819.824856310434	-97.03526921780558	46.803602896991194	933.9756226867712	-178.2906190470237	188.62761713928816	894.9091398169667	-503.60722348420904	235.98500339504196	824.9326060095703	-476.6193087193734	-108.42803043857502	948.2736096954618	-408.50965770362893	-102.01162312536914	816.2339982268752	-461.21603025483483	105.31871093048709	691.414651456089	-188.71041514993215	68.14411343520356	739.7224548854726	-296.0118236249568	4.191044629746579	855.5272067134916	-357.11761572412706	-1.5861954298901013	708.5217112959716	-218.25561147737383	135.25936969803874	892.6823943980601	-379.4359126106677	171.31452831749908	514.4088474498412	-226.9402199049186	274.7354757753123	494.5578375412858	-235.21718480286307	-44.49031870975511	477.9017552516279	-286.3298191054796	-160.29075182896324	597.3949385727165	-126.13912952505915	-167.26842636492657	186.22349402877848	-232.7651981631757	-62.79740712632959	297.58977338404725	-330.5551627243402	272.18027624229313	295.7875201382587	-281.84502946605636	183.98208769000007	246.84337424500364	-300.96058685184175	271.83958218086974	18.94086972397481	-337.6863231730264	290.2394764830377	20.232111567494965	-315.71653951224647	223.63949055304232	44.180342998058016	-287.80804920329564	255.27053507455466	49.01197706721496	-265.90396893107146	279.90680169189073	34.638821265893476	-245.62596881586694	-146.1194101001527	35.55977805906473	-340.10973231021177	-161.07093029791787	63.08433128741686	-234.21923305203214	-160.4215920129536	34.159799216530836	-331.4903654758887	-128.5118022387297	37.2438588668816	-350.0567438474462	-133.5321817649776	51.80434252050564	-291.4120301511027	-102.70641180469579	66.16666569790166	-263.3179307188086	
278	9.266666666666666	66.41729853213563	1350.2409175622888	-376.00887292101976	40.67051479382681	1177.1725333709999	-500.5323217169413	51.06805187095509	1053.114870326684	-341.37869665092404	205.5254089468053	987.3330178638652	-355.2674328306794	226.6237478564755	823.0748944450563	-559.0530967022029	100.98259803934137	1015.929192861438	-572.9807027530721	-74.08168368598305	1010.9525646106127	-366.139532643596	-128.47971951342865	836.929557448293	-531.3419817943299	-1.1278950010583932	1011.3256660882472	-557.9671443803267	146.09126323926546	649.6736152302017	-40.34505863674035	226.08924884995693	428.58274144873343	-376.81879455005776	210.53072162003343	102.12902000325197	-185.37981591083158	-42.858536721957854	647.7555941266276	-38.44525503988025	-114.59915805135374	432.2366137521041	-384.4567086650208	-93.97911491069652	107.20215229319952	-188.28204766327252	201.51398589563664	50.08351392094872	-150.26774413276598	-94.55937714821025	47.51101337633088	-144.28228254776	255.03116538694698	26.625105778059606	-361.81704000170913	301.1099285000092	20.6624699782902	-288.3294523989447	-99.84494334557294	53.97823723578184	-369.57772247534405	-173.41443788048844	31.515812666594126	-309.6396763601335	-85.69654871766929	662.5474758283551	-107.9264085081425	191.00634843716824	665.4979338823505	-106.52394349356481	97.66059628324639	767.5397293522972	-31.7551746769964	3.419411640255082	762.5185951599815	-34.28044066078101	51.18426278201424	1060.9987627049338	-602.4857439186751	66.54097722640908	1095.2453714001026	-564.2707812849144	49.586686869219314	1056.3997860135964	-592.766163036437	42.220519460460544	1087.8694952023739	-550.2086219304547	-161.47299084071292	442.05888377173284	-367.47457951172294	99.33864416322078	1002.3500713078893	-598.5652055394944	-142.44690616866268	100.57422289214718	-165.67698765564035	183.68542906525477	82.62410297369166	-202.56710345322603	268.4014695920639	424.25921303162806	-364.84286155212095	65.76382753205249	862.7312549615929	-321.03150034163684	-67.78896534146308	88.49022536238054	-200.32063389546715	183.1508428506142	428.7052273051415	-382.9130108940044	-109.37657113785107	820.8414451610423	-508.51990401496084	68.82699323781556	677.329318096282	-208.27668671111786	255.47339245782885	849.2644931918778	-568.7343101142179	107.60734001926622	1013.7422289047487	-541.758034563604	-6.93804306444254	999.8154161011254	-585.3547809016582	-153.83714893228094	864.0393443670622	-536.2491585491496	-65.22378023406347	447.42459164796963	-384.8998436002619	199.59759074212485	806.0653561695619	-540.3453902888405	253.59673174134656	92.43107765293863	-163.2403658806009	-13.812020974721047	1015.7876585583665	-532.1185027954562	42.12490534848616	1100.337017398173	-482.4892539728485	44.29191075446136	982.3087336038095	-170.30041871956024	74.45009802981627	1208.223318830691	-504.7099138657449	5.596638627186609	1209.4792747726572	-493.84022985750653	-30.773027664474096	1203.2764686696048	-384.09021696755974	140.33127540343048	1196.9659290852924	-408.54001261327033	44.57061241326883	1128.5089728442156	-335.85205797250785	40.34423681829066	1062.937270666784	-227.58775044170955	59.60000189750182	851.7968482319857	-95.80387296579408	45.779857668387706	967.166329797689	-175.27784471541904	197.28545034084857	938.3169461766796	-483.7363311255582	248.8003858937026	870.5891196244694	-458.6976054086334	-107.43713075741495	989.865656752153	-406.8451873206023	-102.80604127858216	857.795289818674	-459.66149328179245	107.72506216453898	725.6207613565606	-188.95062021097485	71.62023022450816	775.3081478652343	-295.9870231977726	7.093075318932322	891.3113301094052	-356.10491880855676	1.0844646885540474	741.8281256102372	-219.92372855074285	137.98737202662923	930.5828362020949	-375.6485132222771	170.44573235037825	530.7774370966525	-222.51619676265435	273.61305699031755	508.98544454688823	-228.84670248743765	-44.09490003138668	491.15838787527923	-279.2351958344722	-160.9064357552967	619.4048068241327	-126.73162424458798	-165.29016363714288	186.0555201257466	-228.28198936107583	-61.763098110942515	300.57797619903283	-323.3938864378186	271.69604195024823	298.30700618962703	-274.01609294223084	183.59586344109402	249.65163817734583	-294.28597517030414	271.4373390546813	18.812965593490134	-338.51383394237257	289.98410591758795	19.570686613211556	-316.64289185657896	223.87455433263727	44.01745167973081	-288.00999796037377	255.69741093470344	48.14227119455915	-266.23964978845424	280.26301944510254	33.17900603360363	-246.30570628902336	-145.6288838046152	36.01269915299836	-341.2736631040632	-159.47021623915796	61.155581975235066	-234.64252422045732	-159.81279444341595	34.320900458250826	-332.51236588173447	-128.15837760536104	38.04186300872818	-351.3964556278285	-132.55926030880772	51.30813345507176	-292.3960095344632	-101.49402514300652	65.29969680962587	-264.37869055857317	
279	9.3	67.37446321047328	1392.0393911009685	-363.4670236383594	40.27908677940639	1221.9314724454537	-491.7276503568845	51.31625174750887	1089.3743699216052	-336.71956731063284	213.1016086598926	1030.687293204012	-344.1122879690475	235.1950995275788	866.2563363556748	-547.6529618025427	98.87617020104119	1051.8479584602933	-559.7093487902569	-73.85771495897347	1053.6081504081683	-363.1041671643927	-131.11104212305054	878.7027624497478	-526.3988833093412	-3.656545214954371	1053.361385551257	-550.7115506312985	146.5762396071877	679.7842772503221	-45.280425625160795	224.503516021972	435.4394052326902	-363.9926637289114	212.48911850272242	102.61418900566844	-183.5875300622553	-42.374428119078445	677.4186915377946	-44.11246411826886	-114.00267831492427	437.3249340002413	-371.1538369495242	-93.0320027913584	104.98369377528327	-187.6691897771364	203.86094419532293	49.92667583295497	-149.79513099259387	-93.18703895920258	44.252772701894884	-145.4385438710001	254.10557115484218	28.233241632939034	-362.3330390707941	301.1783453202488	21.0582677607353	-289.5875605192704	-101.43454016081418	54.3618849472687	-370.5109367142327	-174.08328363321974	30.465764611044168	-310.0069209754754	-85.01420819654234	695.4022633158734	-112.95987528492812	191.6759113727479	698.809850740206	-110.48369164805413	97.87466142372277	797.0190421904623	-31.28390325853429	3.652841311426701	791.9436803098457	-34.36269462648886	45.803141874575374	1093.7800086727582	-588.1108382529645	60.459888252053155	1129.292965988477	-550.7872277220329	47.244153411488185	1098.7604882961236	-584.8093093560489	39.62578803612601	1129.8413077746977	-542.0110559658085	-161.08909511871494	445.9786236682003	-355.5336332169603	97.17531598544466	1037.8731715924628	-585.0761447305665	-141.18957821428103	97.89184195364453	-164.54780265081533	185.27220375012882	83.72450116915897	-200.87722695190357	266.9093810375037	430.2385332003608	-352.3913503634002	68.2548523247082	898.8930838508393	-319.23075126362573	-67.19586488149712	86.53230941107587	-200.82320419631762	181.79147768469548	434.5351010143671	-371.1116263712448	-111.90815726257522	862.6531438875247	-503.6334747683866	72.08386782950582	711.7246503342332	-209.457233010786	262.28223635652387	893.8224748736403	-558.5303693471385	106.58163091009831	1050.4222633236666	-528.6913170158738	-9.306610842436614	1042.0987052339058	-578.2352694930975	-156.31517359565586	905.9601142365493	-531.2782979769374	-65.16751647761956	451.7183043587626	-374.57170057008574	209.7835852633831	848.0170296401631	-527.8716960871819	255.9896278803364	92.13994803041564	-162.68579517922265	-16.489708386566786	1057.585957318677	-524.8966011505241	42.80086167073721	1144.6827398347837	-475.67654379825166	42.87746669621906	1015.6908875590964	-166.93519347192554	73.68806555858336	1253.3843971825088	-495.87704306429515	5.091786143482796	1253.7382986836888	-483.4290901559008	-28.71466998247099	1244.444349739706	-373.0794694211972	141.83614031781616	1240.3121389465928	-401.53371137547	43.72312698926172	1164.5755928987005	-330.07489514663354	38.72341109482814	1097.188412490018	-222.96447819393217	58.79648033485594	884.1887386691725	-94.3321973278277	44.64455179336512	1000.6530150089077	-172.1333612274196	202.7180122854837	980.3822776203159	-471.92588804364266	258.53879640709886	915.5735805735972	-448.4384933992158	-107.75566264038696	1032.4501713548211	-403.3218612854662	-104.59876746290769	899.939209967174	-455.1337335933714	110.02991769321255	760.2013434052074	-188.75149386917568	74.90133550823354	811.1560564053034	-295.51659476166486	9.748519731986551	927.268389805283	-354.74234940008205	3.667163716015484	775.5072632399476	-221.1076758242853	140.3870255067146	968.5766079057587	-371.6163563429708	169.93036518941622	547.9171446228572	-218.4318306366125	272.80998450004967	524.3437334087823	-222.73779505987426	-43.59338049762038	503.4883773219221	-272.69673553625154	-160.92052427151083	640.5828562083261	-128.5132989293367	-164.2969395137847	185.84665500790177	-223.52452298530585	-61.323692207644015	303.04854350205926	-315.9352738733509	272.0568695769197	301.6880752664214	-266.68180857906754	183.49917218461036	253.80222440474859	-286.7898650520613	270.7707801194831	20.020591250076997	-339.35359901719727	289.6365706175349	20.372360896165457	-317.74681728250596	224.17949628784632	45.12484597509814	-287.90313037108336	256.34975298566917	48.72114529257304	-266.55371321071385	281.05720753035456	33.318292035641555	-247.13659883525867	-146.7381798103103	35.651522674101535	-341.9180684151356	-159.34604343954754	58.964409655570876	-234.71966406559835	-160.79674825672262	33.72850513926816	-333.0037827090747	-129.41305366282953	37.95458121725438	-352.23034006649686	-133.12788176467237	50.22872205081903	-292.96854918643055	-101.78663968300363	63.95492235978174	-265.1279167678904	
280	9.333333333333334	70.35974153082908	1433.7513207884438	-353.038757281631	39.857111644068546	1265.166592125289	-482.5394546196883	52.76837793507272	1127.698349930359	-329.6784187105216	197.39009591273413	1084.9055776817304	-347.3167595266415	241.3030669735718	903.749931783665	-532.2728374079546	98.67407529560326	1084.4145635855493	-546.0466787084098	-73.6400676505268	1092.1750885261424	-353.45512373954205	-134.05529984895347	919.0809505742321	-517.5387050455246	-6.917241338983221	1093.759118305262	-543.3232157945122	148.81058809799694	709.6755129983175	-48.67793906108146	221.80921870236097	443.16648257620415	-348.9762887318261	214.30253038242307	103.11035057315354	-182.33757991784867	-40.10126972579897	705.5341200756982	-50.79307552692432	-114.29099868295366	442.92756180032535	-357.21957638600026	-93.13284480808214	104.2924615536227	-185.6512624709109	205.89675546326202	50.73318253918642	-148.7571784629766	-92.93305634493916	42.95389671240015	-144.9747275941931	255.15859654498624	24.739533235195047	-361.0425788207243	303.9921384186922	28.404733950022287	-289.20190469266925	-102.99556248065453	52.916649779317424	-369.97980968843143	-175.73292074981723	31.229799521828223	-308.7543439597722	-81.70976717809937	723.2935081071072	-120.32625321797047	194.85153910958886	729.2907552722468	-113.04323903331566	98.77098306940327	826.41183077389	-35.24639010824546	4.668653103374817	820.4605318074265	-39.97113087964893	43.611632251223206	1123.8075324945407	-574.2957342852334	57.92589278071991	1160.7852510689368	-538.2847286165091	43.277944234458644	1139.3577458328432	-578.191902514818	36.66064772195972	1170.1123697419764	-534.9933861192185	-161.4237929276618	450.65398864563764	-342.2682643599387	96.86279455604732	1069.7035304738358	-570.9859384450158	-142.40129001062002	94.62670761345049	-166.07478465664786	182.4008135813091	87.7073940692522	-194.23479681202517	264.2492241072997	437.14782615457966	-337.5946132310351	63.675255679207346	936.2110167452826	-320.216047604141	-65.83514764510075	87.28394149803287	-197.7563720329871	179.23385312072799	441.8033423081584	-356.6911984055521	-114.4171217828463	902.7827527814748	-495.3279963682644	65.91386924297117	744.84555016976	-217.8873811120603	266.9171825972959	932.0842187590807	-544.6424870263623	107.12320361677749	1084.0886553485655	-515.1916784499192	-13.195631533030273	1082.7196240703013	-570.8011650105038	-159.34677209994666	946.3873889614638	-521.627716074826	-66.03889603176397	456.50678462134755	-363.80445286666526	216.25096466302685	885.6553066367505	-511.90883606788697	259.9145903625796	87.66576440504309	-171.38809117624305	-19.165894678957464	1097.7980786615724	-517.1964863608548	42.28644401766029	1187.738552456186	-467.3618040263878	49.61830850902783	1047.7193986493912	-162.58369503374718	73.34344244920298	1296.4927936722438	-487.0114277045049	5.007451368991708	1297.0602406103717	-473.21299828176325	-26.67560473828709	1286.7556196942658	-362.3243536758312	143.25988096970366	1282.0659667337502	-394.17142257729734	48.18945615742497	1202.794306246238	-319.8467367908344	45.77750003160249	1131.4528167603457	-215.23677068903163	64.18634293616081	912.9971071741023	-95.83714636213486	50.60191756476929	1032.8464076712828	-168.4238834879931	197.0971684963766	1021.8944918041971	-469.8085848891283	256.03858504220426	963.9938616807926	-437.5407788448321	-108.31120214340416	1071.4592915773185	-393.24157928413484	-106.16804955054364	939.5305067354649	-446.568810734928	106.49416374190632	791.1529309191916	-197.21163949867073	68.27511428599131	847.4336113750337	-300.1726811500939	4.630853947524209	967.9327586044816	-351.786797693893	-0.6447109418644542	811.3243075556499	-223.8312980689608	135.7358422137157	1005.4118173682962	-373.33493891069156	169.58709168811964	565.6993180005371	-212.2473649299475	271.9843914827779	539.8741727053041	-214.76092428395688	-43.19707999005593	515.7411524804209	-266.36917484688394	-159.76360041030293	660.9378487177507	-129.695900510111	-164.83067498953062	184.07327464777185	-223.03518460512376	-60.4280351621759	308.38604323641584	-303.81849705247754	274.88379848202436	300.4746591178912	-268.7125065420036	179.81538410734493	261.828775327334	-271.60156687822166	273.2184149880433	20.278416596939177	-338.08233323260373	292.19741473525403	24.51937448058786	-316.9942642182208	224.36705293649888	41.26284493853569	-286.88350266813706	256.03737680156405	50.59928479532291	-266.5493472896945	283.03107117575956	39.98683724378566	-246.96754578421078	-148.55001917666465	35.57014209804706	-340.9291696636569	-159.47436343824322	59.41830359658889	-233.66374785688322	-162.57400817941206	34.06880042740886	-331.8804383443037	-131.26312047912026	37.35471217149314	-351.40702556859173	-134.06646413177964	49.831060693053125	-292.13733406209917	-102.08260681196178	62.69385807483757	-264.61708409832715	
